<?xml version="1.0" standalone="no"?>
<!DOCTYPE svg PUBLIC "-//W3C//DTD SVG 20010904//EN"
 "http://www.w3.org/TR/2001/REC-SVG-20010904/DTD/svg10.dtd">
<svg version="1.0" xmlns="http://www.w3.org/2000/svg"
 width="694.000000pt" height="266.000000pt" viewBox="0 0 694.000000 266.000000"
 preserveAspectRatio="xMidYMid meet">

<g transform="translate(0.000000,266.000000) scale(0.100000,-0.100000)"
fill="#000000" stroke="none">
<path d="M1300 1910 c-46 -10 -86 -22 -87 -27 -2 -4 -59 -111 -126 -238 -68
-126 -120 -232 -115 -233 5 -2 66 6 136 18 l127 23 90 173 c50 96 93 174 97
174 4 0 19 -20 33 -44 22 -37 32 -45 63 -49 20 -2 38 -4 39 -3 1 1 -30 51 -68
111 -41 65 -77 111 -87 112 -9 1 -55 -7 -102 -17z"/>
</g>
</svg>
